<?xml version="1.0" encoding="UTF-8"?>
<svg enable-background="new 0 0 512 512" version="1.1" viewBox="0 0 512 512" xml:space="preserve" xmlns="http://www.w3.org/2000/svg">
<g fill="#8B7E7F">
	<polygon points="34.289 341.99 43.391 424.95 71.173 424.95 71.173 341.99"/>
	<polygon points="477.71 341.99 468.61 424.95 440.83 424.95 440.83 341.99"/>
</g>
<g fill="#463836">
	<path d="m422.64 312.42-22.756 71.047 22.756 71.047c16.328 0 29.565-13.237 29.565-29.565v-82.963c1e-3 -16.328-13.236-29.566-29.565-29.566z"/>
	<path d="m59.795 341.99v82.963c0 16.329 13.237 29.565 29.565 29.565l22.756-71.047-22.756-71.047c-16.328 1e-3 -29.565 13.239-29.565 29.566z"/>
	<path d="m437.02 87.53c-48.355-48.344-112.64-74.979-181.02-74.979s-132.66 26.635-181.02 74.979c-48.356 48.356-74.98 112.64-74.98 181.02 0 7.908 6.411 14.319 14.319 14.319 7.909 0 14.319-6.411 14.319-14.319 0-125.56 101.8-227.36 227.36-227.36 125.46 0 227.2 101.64 227.36 227.06-2e-3 0.101-0.015 0.198-0.015 0.299 0 7.913 6.415 14.328 14.328 14.328s14.328-6.414 14.328-14.328c0-68.381-26.624-132.66-74.98-181.02z"/>
</g>
<path d="m477.14 424.95h-8.533v-103.4c0-0.668 0.079-1.335 0.233-1.983 3.97-16.61 5.984-33.775 5.984-51.019 0-120.66-98.164-218.83-218.82-218.83s-218.83 98.167-218.83 218.83c0 17.244 2.014 34.409 5.984 51.019 0.155 0.649 0.233 1.315 0.233 1.983v103.4h-8.533s-8.533-3.82-8.533-8.533v-93.864c-4.126-17.6-6.217-35.762-6.217-53.999-1e-3 -130.07 105.82-235.89 235.89-235.89s235.89 105.82 235.89 235.89c0 18.237-2.091 36.399-6.217 53.999v93.864c0 4.714-3.819 8.534-8.533 8.534z" fill="#605353"/>
<g fill="#F14742">
	<path d="m377.71 267.49c-24.817 0-44.934 20.118-44.934 44.933v142.1c0 24.817 20.117 44.933 44.934 44.933 24.816 0 44.934-20.117 44.934-44.933v-142.1c-1e-3 -24.815-20.118-44.933-44.934-44.933z"/>
	<path d="m134.29 267.49c-24.816 0-44.934 20.118-44.934 44.933v142.1c0 24.817 20.117 44.933 44.934 44.933s44.934-20.117 44.934-44.933v-142.1c0-24.815-20.117-44.933-44.934-44.933z"/>
</g>















</svg>
